<svg width="202" height="431" viewBox="0 0 202 431" fill="none" xmlns="http://www.w3.org/2000/svg">
<path d="M44.081 83.3C44.081 94.139 44.081 142.518 44.081 142.518H0.695999V214.93H44.081V430.113H133.203V214.936H193.008C193.008 214.936 198.609 180.215 201.324 142.251C193.54 142.251 133.54 142.251 133.54 142.251C133.54 142.251 133.54 100.124 133.54 92.74C133.54 85.34 143.257 75.386 152.861 75.386C162.447 75.386 182.679 75.386 201.418 75.386C201.418 65.527 201.418 31.462 201.418 0.000976821C176.402 0.000976821 147.942 0.000976821 135.397 0.000976821C41.878 -0.00402318 44.081 72.48 44.081 83.3Z" fill="white"/>
</svg>
