<svg width="431" height="412" viewBox="0 0 431 412" fill="none" xmlns="http://www.w3.org/2000/svg">
<path d="M430.117 251.985V411.002H337.929V262.635C337.929 225.364 324.595 199.928 291.226 199.928C265.753 199.928 250.594 217.07 243.925 233.652C241.493 239.58 240.867 247.831 240.867 256.129V411.002H148.648C148.648 411.002 149.89 159.717 148.648 133.682H240.858V172.991C240.671 173.285 240.428 173.602 240.252 173.887H240.858V172.991C253.109 154.122 274.988 127.167 323.96 127.167C384.633 127.166 430.117 166.803 430.117 251.985ZM52.183 0C20.635 0 0 20.693 0 47.905C0 74.524 20.038 95.845 50.959 95.845H51.575C83.734 95.845 103.734 74.528 103.734 47.905C103.128 20.693 83.734 0 52.183 0ZM5.477 411.002H97.661V133.682H5.477V411.002Z" fill="white"/>
</svg>
