<svg width="483" height="483" viewBox="0 0 483 483" fill="none" xmlns="http://www.w3.org/2000/svg">
<g clip-path="url(#clip0)">
<path d="M475.266 126.603C475.265 126.603 475.265 126.603 475.264 126.603L475.248 126.587L444.128 122.147C439.754 121.524 436.713 117.473 437.336 113.099C437.635 110.997 438.758 109.101 440.456 107.827L465.608 88.963C469.143 86.312 469.859 81.298 467.208 77.763L438.408 39.363C435.757 35.828 430.743 35.112 427.208 37.763L402.064 56.627C398.544 59.298 393.526 58.61 390.855 55.09C389.558 53.381 389.002 51.222 389.312 49.099L393.76 17.979C394.387 13.605 391.35 9.55199 386.977 8.92399C386.974 8.92399 386.971 8.92299 386.968 8.92299L339.48 2.13899C335.107 1.51099 331.052 4.54699 330.424 8.92099C330.424 8.92199 330.424 8.92199 330.424 8.92299L325.976 40.043C325.353 44.417 321.302 47.458 316.928 46.835C314.826 46.536 312.93 45.413 311.656 43.715L292.8 18.563C290.149 15.028 285.135 14.312 281.6 16.963L257.56 35.003C246.684 33.847 235.716 33.847 224.84 35.003C153.614 43.144 97.759 99.946 90.816 171.299C90.6 173.563 90.52 175.811 90.408 178.059H88.008C84.212 178.066 80.943 180.74 80.184 184.459L74.656 210.747L52.512 195.475C49.334 193.282 45.042 193.673 42.312 196.403L18.312 220.403C15.586 223.132 15.196 227.418 17.384 230.595L32.584 252.699L6.28799 258.227C2.60999 259.033 -0.00801223 262.294 -1.22333e-05 266.059V298.059C-0.00201223 301.843 2.64899 305.111 6.35199 305.891L32.648 311.419L17.448 333.523C15.26 336.7 15.65 340.986 18.376 343.715L42.376 367.715C45.106 370.445 49.398 370.836 52.576 368.643L74.68 353.403L80.208 379.699C80.967 383.418 84.236 386.092 88.032 386.099H120.032C123.816 386.101 127.084 383.45 127.864 379.747L133.392 353.451L155.496 368.651C158.673 370.839 162.959 370.449 165.688 367.723L178.112 355.259V378.059C178.148 389.44 184.245 399.939 194.112 405.611V450.059C194.112 467.732 208.439 482.059 226.112 482.059H258.112C275.785 482.059 290.112 467.732 290.112 450.059V405.611C299.979 399.939 306.076 389.44 306.112 378.059V346.395C306.329 333.072 313.299 320.772 324.616 313.739C331.255 309.432 337.551 304.617 343.448 299.339L332.776 287.419C327.501 292.147 321.865 296.456 315.92 300.307C300.035 310.277 290.311 327.641 290.112 346.395V378.059C290.112 386.896 282.949 394.059 274.112 394.059H210.112C201.275 394.059 194.112 386.896 194.112 378.059V345.731C193.927 327.332 184.356 310.303 168.736 300.579C105.329 260.737 86.225 177.038 126.067 113.631C150.787 74.29 193.929 50.345 240.392 50.179C240.273 50.464 240.168 50.755 240.08 51.051C239.783 53.151 240.333 55.284 241.608 56.979L260.464 82.123C262.452 84.696 262.643 88.23 260.944 91.003C259.308 93.793 256.145 95.315 252.944 94.851L221.824 90.403C217.45 89.776 213.397 92.813 212.769 97.186C212.769 97.189 212.768 97.192 212.768 97.195L205.976 144.707C205.349 149.08 208.386 153.134 212.759 153.762C212.762 153.762 212.765 153.763 212.768 153.763L243.888 158.211C248.262 158.834 251.303 162.885 250.68 167.259C250.381 169.361 249.258 171.257 247.56 172.531L222.416 191.387C218.881 194.038 218.165 199.052 220.816 202.587L249.616 240.987C252.267 244.522 257.281 245.238 260.816 242.587L285.968 223.731C289.506 221.085 294.52 221.808 297.166 225.347C298.432 227.04 298.977 229.166 298.68 231.259L294.24 262.379C293.612 266.752 296.648 270.807 301.022 271.435C301.023 271.435 301.023 271.435 301.024 271.435L348.544 278.227C348.918 278.275 349.295 278.299 349.672 278.299C353.655 278.304 357.034 275.378 357.6 271.435L362.04 240.315C362.663 235.941 366.714 232.9 371.088 233.523C373.19 233.822 375.086 234.945 376.36 236.643L395.224 261.787C397.875 265.322 402.889 266.038 406.424 263.387L444.824 234.587C448.359 231.936 449.075 226.922 446.424 223.387L427.568 198.243C425.589 195.666 425.398 192.138 427.088 189.363C428.689 186.536 431.881 185.004 435.088 185.523L466.208 189.963C470.581 190.591 474.636 187.554 475.264 183.181C475.264 183.18 475.264 183.18 475.264 183.179L482.048 135.659C482.676 131.285 479.64 127.231 475.266 126.603ZM210.112 410.059H274.112V426.059H210.112V410.059V410.059ZM210.112 442.059H274.112V450.059C274.112 458.896 266.949 466.059 258.112 466.059H226.112C217.275 466.059 210.112 458.896 210.112 450.059V442.059V442.059ZM146.424 304.099C150.792 307.671 155.356 310.997 160.096 314.059C167.655 318.836 173.345 326.063 176.216 334.531L159.056 351.659L142.44 340.203C135.164 335.189 125.201 337.023 120.186 344.299C118.984 346.044 118.14 348.01 117.704 350.083L113.512 370.059H94.496L90.304 350.115C88.484 341.468 79.999 335.933 71.352 337.753C69.279 338.189 67.313 339.033 65.568 340.235L48.944 351.659L34.368 337.115L45.816 320.507C50.835 313.234 49.007 303.27 41.734 298.251C39.988 297.046 38.02 296.2 35.944 295.763L16 291.563V272.555L35.944 268.355C44.588 266.522 50.11 258.029 48.277 249.384C47.842 247.333 47.009 245.388 45.824 243.659L34.368 227.003L48.944 212.459L65.576 223.915C72.855 228.924 82.818 227.084 87.827 219.805C89.027 218.062 89.869 216.098 90.304 214.027L91.704 207.371C92.986 216.589 95.109 225.669 98.048 234.499C71.725 237.637 52.93 261.521 56.068 287.844C59.206 314.167 83.09 332.962 109.413 329.824C125.259 327.934 139.13 318.293 146.424 304.099ZM134 292.827C128.026 309.432 109.723 318.05 93.118 312.077C76.513 306.103 67.895 287.8 73.868 271.195C78.438 258.492 90.499 250.031 103.999 250.059C104.103 250.059 104.199 250.059 104.303 250.059C111.66 265.922 121.707 280.391 134 292.827ZM460.512 172.971L437.312 169.659C424.19 167.785 412.034 176.904 410.16 190.025C409.26 196.326 410.9 202.727 414.72 207.819L428.776 226.563L403.176 245.763L389.112 227.027C381.16 216.422 366.117 214.271 355.513 222.223C350.421 226.041 347.054 231.726 346.152 238.027L342.912 261.259L311.24 256.731L314.552 233.531C316.431 220.41 307.317 208.25 294.196 206.372C287.891 205.469 281.487 207.109 276.392 210.931L257.648 224.987L238.448 199.387L257.184 185.323C267.789 177.371 269.94 162.328 261.988 151.724C258.17 146.632 252.485 143.265 246.184 142.363L222.984 139.051L227.512 107.379L250.712 110.691C263.833 112.57 275.993 103.456 277.871 90.335C278.774 84.03 277.134 77.626 273.312 72.531L259.208 53.771L284.808 34.571L298.872 53.315C306.824 63.92 321.867 66.071 332.471 58.119C337.563 54.301 340.93 48.616 341.832 42.315L345.144 19.115L376.816 23.635L373.504 46.835C371.63 59.957 380.748 72.113 393.87 73.987C400.171 74.887 406.572 73.247 411.664 69.427L430.408 55.371L449.608 80.971L430.864 95.035C420.259 102.987 418.108 118.03 426.06 128.634C429.878 133.726 435.563 137.093 441.864 137.995L465.064 141.307L460.512 172.971Z" fill="white"/>
<path d="M344 76.171C308.654 76.171 280 104.825 280 140.171C280 175.517 308.654 204.171 344 204.171C379.346 204.171 408 175.517 408 140.171C407.96 104.841 379.33 76.21 344 76.171ZM344 188.171C317.49 188.171 296 166.681 296 140.171C296 113.661 317.49 92.171 344 92.171C370.51 92.171 392 113.661 392 140.171C391.969 166.668 370.497 188.14 344 188.171Z" fill="white"/>
<path d="M250.112 354.059H234.112V378.059H250.112V354.059Z" fill="white"/>
<path d="M207.12 275.491C157.735 256.199 133.34 200.525 152.633 151.14C160.109 132.004 173.526 115.771 190.912 104.827L182.36 91.291C130.024 124.262 114.325 193.417 147.296 245.753C160.065 266.022 178.997 281.663 201.312 290.379C221.064 297.947 234.107 316.907 234.112 338.059H250.112C250.137 310.307 233.035 285.418 207.12 275.491Z" fill="white"/>
<path d="M450.112 298.059H394.112V314.059H450.112V298.059Z" fill="white"/>
<path d="M391.234 339.907L380.993 352.2L428.996 392.194L439.238 379.901L391.234 339.907Z" fill="white"/>
<path d="M362.112 362.059H346.112V418.059H362.112V362.059Z" fill="white"/>
<path d="M72.1646 122.294L8.16904 138.291L12.0471 153.805L76.0427 137.807L72.1646 122.294Z" fill="white"/>
<path d="M30.7527 43.5595L21.4581 56.5721L77.4537 96.568L86.7483 83.5553L30.7527 43.5595Z" fill="white"/>
<path d="M105.504 0.0667071L90.003 4.02991L106.365 68.025L121.866 64.0618L105.504 0.0667071Z" fill="white"/>
</g>
<defs>
<clipPath id="clip0">
<rect width="482.13" height="482.13" fill="white"/>
</clipPath>
</defs>
</svg>
